<svg width="25" height="24" viewBox="0 0 25 24" fill="none" xmlns="http://www.w3.org/2000/svg">
<path d="M24.5 12C24.5 5.37244 19.1276 0 12.5 0C5.87244 0 0.5 5.37244 0.5 12C0.5 17.9893 4.88756 22.9547 10.6244 23.8542V15.4684H7.57733V12H10.6244V9.35644C10.6244 6.34844 12.4164 4.688 15.1578 4.688C16.4716 4.688 17.844 4.92267 17.844 4.92267V7.87556H16.3311C14.8413 7.87556 14.3756 8.8 14.3756 9.74933V12H17.7036L17.172 15.4684H14.3756V23.8542C20.1124 22.9547 24.5 17.9893 24.5 12Z" fill="#4676ED"/>
<path d="M17.1702 15.4679L17.7018 11.9995H14.3738V9.74883C14.3738 8.7995 14.8378 7.87505 16.3293 7.87505H17.8422V4.92217C17.8422 4.92217 16.4698 4.6875 15.156 4.6875C12.4147 4.6875 10.6227 6.34794 10.6227 9.35594V11.9995H7.57556V15.4679H10.6227V23.8537C11.2342 23.9497 11.86 23.9995 12.4982 23.9995C13.1365 23.9995 13.7622 23.9497 14.3738 23.8537V15.4679H17.1702Z" fill="white"/>
</svg>
